<svg width="60" height="auto" viewBox="0 0 44 38" fill="none" xmlns="http://www.w3.org/2000/svg">
<path d="M41.1919 4.66666H2.10103C1.58265 4.66666 1.08551 4.46073 0.718957 4.09419C0.352409 3.72764 0.146484 3.23049 0.146484 2.71211C0.146484 2.19374 0.352409 1.69659 0.718957 1.33004C1.08551 0.963493 1.58265 0.757568 2.10103 0.757568H41.1919C41.7103 0.757568 42.2075 0.963493 42.574 1.33004C42.9406 1.69659 43.1465 2.19374 43.1465 2.71211C43.1465 3.23049 42.9406 3.72764 42.574 4.09419C42.2075 4.46073 41.7103 4.66666 41.1919 4.66666Z" fill="#353535"/>
<path d="M41.1919 20.9546H2.10103C1.58265 20.9546 1.08551 20.7486 0.718957 20.3821C0.352409 20.0155 0.146484 19.5184 0.146484 19C0.146484 18.4816 0.352409 17.9845 0.718957 17.6179C1.08551 17.2514 1.58265 17.0455 2.10103 17.0455H41.1919C41.7103 17.0455 42.2075 17.2514 42.574 17.6179C42.9406 17.9845 43.1465 18.4816 43.1465 19C43.1465 19.5184 42.9406 20.0155 42.574 20.3821C42.2075 20.7486 41.7103 20.9546 41.1919 20.9546Z" fill="#353535"/>
<path d="M41.1919 37.2425H2.10103C1.58265 37.2425 1.08551 37.0366 0.718957 36.67C0.352409 36.3035 0.146484 35.8063 0.146484 35.2879C0.146484 34.7696 0.352409 34.2724 0.718957 33.9059C1.08551 33.5393 1.58265 33.3334 2.10103 33.3334H41.1919C41.7103 33.3334 42.2075 33.5393 42.574 33.9059C42.9406 34.2724 43.1465 34.7696 43.1465 35.2879C43.1465 35.8063 42.9406 36.3035 42.574 36.67C42.2075 37.0366 41.7103 37.2425 41.1919 37.2425Z" fill="#353535"/>
</svg>
