<svg width="36" height="36" viewBox="0 0 36 36" fill="none" xmlns="http://www.w3.org/2000/svg">
<path d="M33.3666 13.5713C33.2315 13.1547 32.9768 12.7871 32.6342 12.5143C32.2917 12.2415 31.8765 12.0754 31.4402 12.0368L23.1558 11.3226L19.9084 3.60032C19.7393 3.19512 19.4541 2.849 19.0887 2.60554C18.7234 2.36208 18.2941 2.23218 17.855 2.23218C17.416 2.23218 16.9867 2.36208 16.6214 2.60554C16.256 2.849 15.9708 3.19512 15.8017 3.60032L12.5641 11.3226L4.26985 12.041C3.83189 12.0778 3.41455 12.2431 3.07015 12.5162C2.72576 12.7892 2.46964 13.1579 2.33393 13.5759C2.19821 13.9939 2.18894 14.4427 2.30726 14.866C2.42559 15.2892 2.66625 15.6682 2.99907 15.9552L9.29159 21.454L7.40565 29.6199C7.30592 30.0472 7.33438 30.4945 7.48745 30.9057C7.64053 31.317 7.91144 31.674 8.26631 31.9321C8.62118 32.1902 9.04426 32.338 9.48266 32.3569C9.92105 32.3759 10.3553 32.2652 10.7312 32.0387L17.8453 27.7144L24.9748 32.0387C25.3506 32.2652 25.7849 32.3759 26.2233 32.3569C26.6617 32.338 27.0847 32.1902 27.4396 31.9321C27.7945 31.674 28.0654 31.317 28.2185 30.9057C28.3715 30.4945 28.4 30.0472 28.3003 29.6199L26.4157 21.4456L32.7068 15.9552C33.0396 15.6672 33.2798 15.2872 33.3972 14.863C33.5146 14.4388 33.504 13.9894 33.3666 13.5713ZM31.2436 14.2687L24.9524 19.7592C24.6463 20.0255 24.4185 20.3703 24.2936 20.7564C24.1688 21.1425 24.1515 21.5554 24.2438 21.9506L26.1339 30.1305L19.01 25.8062C18.6625 25.5945 18.2634 25.4826 17.8564 25.4826C17.4495 25.4826 17.0504 25.5945 16.7028 25.8062L9.58871 30.1305L11.4663 21.9562C11.5586 21.561 11.5413 21.1481 11.4165 20.762C11.2916 20.3759 11.0638 20.0311 10.7577 19.7647L4.46374 14.2771C4.46323 14.2729 4.46323 14.2687 4.46374 14.2645L12.7552 13.5476C13.16 13.5119 13.5474 13.3663 13.8756 13.1267C14.2037 12.887 14.4602 12.5623 14.6174 12.1875L17.855 4.47494L21.0913 12.1875C21.2485 12.5623 21.505 12.887 21.8331 13.1267C22.1613 13.3663 22.5487 13.5119 22.9535 13.5476L31.2464 14.2645V14.2743L31.2436 14.2687Z" fill="#353535"/>
</svg>
