<svg width="45" height="56" viewBox="0 0 45 56" fill="none" xmlns="http://www.w3.org/2000/svg">
<path d="M13.4377 21.3337L19.3959 30.2047C19.44 30.2488 19.4841 30.3371 19.5283 30.3812C19.9696 30.8225 20.6757 30.8225 21.1171 30.3812C21.5584 29.9399 21.5584 29.2337 21.1171 28.7924L13.4818 21.2895C13.4377 21.2454 13.3936 21.2895 13.4377 21.3337ZM20.9406 29.8516C20.8523 30.1605 20.4992 30.3371 20.1461 30.2488C19.8372 30.1605 19.6607 29.8074 19.7489 29.4544C19.8372 29.1454 20.1903 28.9689 20.5433 29.0572C20.8523 29.1454 21.0288 29.4985 20.9406 29.8516Z" fill="#274D83"/>
<path d="M18.5573 17.0085C18.6014 17.1851 18.8221 17.3175 18.9986 17.3175C19.3958 17.2733 19.8372 17.2733 20.2344 17.2733C20.8964 17.2733 21.5143 17.3175 22.1322 17.4057C22.397 17.4499 22.6618 17.2292 22.6618 16.9644V13.9191C22.6618 13.6543 22.4411 13.4778 22.2204 13.4778C20.8081 13.5219 19.3958 13.7867 18.1159 14.1839C17.8953 14.2722 17.7629 14.4929 17.8511 14.7577L18.5573 17.0085Z" fill="#274D83"/>
<path d="M23.3241 17.6264C24.251 17.847 25.1778 18.2001 26.0605 18.5973C26.2811 18.7297 26.5901 18.5973 26.6784 18.3325L27.87 14.7135C27.9582 14.4928 27.8258 14.228 27.6052 14.1397C26.2811 13.7425 24.913 13.4777 23.5007 13.4336C23.2359 13.4336 23.0593 13.6101 23.0593 13.8749V17.185C23.0152 17.4057 23.1476 17.5822 23.3241 17.6264Z" fill="#274D83"/>
<path d="M36.1231 21.2454L32.4158 23.9376C32.2393 24.07 32.1951 24.2907 32.2834 24.5114C32.6806 25.2175 32.9895 25.9237 33.2543 26.674C33.3426 26.8946 33.5633 27.027 33.784 26.9388L38.1091 25.5265C38.3298 25.4382 38.4622 25.2175 38.3739 24.9527C37.9326 23.6728 37.3588 22.4371 36.6968 21.3337C36.6086 21.1572 36.3438 21.113 36.1231 21.2454Z" fill="#274D83"/>
<path d="M14.6739 18.5532C15.6889 18.0677 16.7482 17.6705 17.8515 17.4498C18.1163 17.4057 18.2929 17.1409 18.2046 16.876L17.5426 14.8017C17.4543 14.5811 17.1895 14.4487 16.9688 14.5369C15.6889 15.0665 14.4532 15.7286 13.3498 16.5671C13.1733 16.6995 13.1292 16.9643 13.2616 17.185L14.1442 18.4207C14.2766 18.5973 14.4973 18.6414 14.6739 18.5532Z" fill="#274D83"/>
<path d="M28.1789 14.8457L26.9432 18.6413C26.899 18.8178 26.9432 19.0385 27.1197 19.1267C27.87 19.5681 28.6203 20.0977 29.2823 20.7156C29.4588 20.8921 29.7678 20.848 29.9443 20.6715L32.46 17.1848C32.5924 17.0083 32.5482 16.6994 32.3717 16.567C31.2683 15.7284 30.0326 15.0664 28.7527 14.5368C28.532 14.4926 28.2231 14.625 28.1789 14.8457Z" fill="#274D83"/>
<path d="M30.1205 21.5544C30.6943 22.1723 31.2239 22.7901 31.6652 23.4963C31.7976 23.717 32.0624 23.7611 32.2831 23.6287L35.9463 20.9806C36.1228 20.8482 36.1669 20.5834 36.0345 20.3628C35.2401 19.2594 34.3133 18.2443 33.2982 17.3616C33.1217 17.1851 32.8127 17.2292 32.6362 17.4499L30.0323 21.0248C29.944 21.1572 29.9881 21.422 30.1205 21.5544Z" fill="#274D83"/>
<path d="M11.9814 22.128C12.7317 21.3335 13.5261 20.7157 14.4529 20.1419C14.6736 20.0095 14.7177 19.7006 14.5853 19.524L12.2462 16.3464C12.1138 16.1257 11.8048 16.1257 11.6283 16.2581C10.5249 17.1849 9.42159 18.3765 8.5389 19.524C8.4065 19.7006 8.45063 20.0095 8.62717 20.1419L11.4076 22.128C11.5842 22.3045 11.8048 22.2604 11.9814 22.128Z" fill="#274D83"/>
<path d="M7.5237 25.5267L7.74437 25.6149C7.96504 25.7032 8.18571 25.5708 8.27398 25.3501C8.75946 24.2026 9.37734 23.1434 10.1276 22.2166C10.3042 22.04 10.26 21.7311 10.0394 21.5987L9.50974 21.2456C9.28907 21.1132 9.02426 21.1574 8.89186 21.378C8.18571 22.4814 7.61196 23.7171 7.21476 24.997C7.17062 25.2177 7.30302 25.4825 7.5237 25.5267Z" fill="#274D83"/>
<path d="M33.6073 27.7773C33.7839 28.5275 33.9163 29.322 34.0045 30.1164C34.0045 30.337 34.2252 30.5136 34.4459 30.5136H38.9476C39.2124 30.5136 39.3889 30.2929 39.3889 30.0722C39.3448 28.7041 39.1683 27.4242 38.8152 26.1443C38.7711 25.8795 38.5062 25.7471 38.2414 25.8353L33.9163 27.2476C33.6956 27.3359 33.5632 27.5566 33.6073 27.7773Z" fill="#274D83"/>
<path d="M7.12669 30.5136C7.17083 29.1013 7.43563 27.7331 7.87698 26.4532C7.96525 26.2325 7.83284 25.9677 7.61217 25.8795L7.47977 25.8353C7.2591 25.7471 6.99429 25.8795 6.90602 26.1443C6.55295 27.5566 6.33228 29.013 6.33228 30.5136H7.12669Z" fill="#274D83"/>
</svg>
