<svg width="41" height="41" viewBox="0 0 41 41" fill="none" xmlns="http://www.w3.org/2000/svg">
<path d="M20.1292 0.451172C9.05815 0.451172 0 9.48919 0 20.6207C0 30.6853 7.36729 39.0389 16.9891 40.5486V26.4581H11.8762V20.6207H16.9891V16.1721C16.9891 11.1197 19.9883 8.34182 24.5979 8.34182C26.792 8.34182 29.0868 8.72428 29.0868 8.72428V13.6962H26.5505C24.0544 13.6962 23.2694 15.2462 23.2694 16.8364V20.6207H28.8653L27.9595 26.4581H23.2694V40.5486C28.0127 39.7994 32.332 37.3792 35.4475 33.7249C38.5628 30.0705 40.2692 25.4227 40.2585 20.6207C40.2585 9.48919 31.2003 0.451172 20.1292 0.451172Z" fill="#D8E0E9"/>
</svg>
