<svg width="42" height="37" viewBox="0 0 42 37" fill="none" xmlns="http://www.w3.org/2000/svg">
<path d="M2.49919 0.125H39.2492C39.7907 0.125 40.31 0.340103 40.6929 0.72299C41.0757 1.10588 41.2908 1.62518 41.2908 2.16667V34.8333C41.2908 35.3748 41.0757 35.8941 40.6929 36.277C40.31 36.6599 39.7907 36.875 39.2492 36.875H2.49919C1.9577 36.875 1.4384 36.6599 1.05551 36.277C0.672623 35.8941 0.45752 35.3748 0.45752 34.8333V2.16667C0.45752 1.62518 0.672623 1.10588 1.05551 0.72299C1.4384 0.340103 1.9577 0.125 2.49919 0.125V0.125ZM20.9967 17.8528L7.90552 6.73592L5.26156 9.84742L21.0232 23.2305L36.5011 9.83721L33.8306 6.74817L20.9987 17.8528H20.9967Z" fill="#D8E0E9"/>
</svg>
