<svg width="44" height="37" viewBox="0 0 44 37" fill="none" xmlns="http://www.w3.org/2000/svg">
<path d="M43.3739 5.10364C41.787 5.82498 40.0763 6.29901 38.3039 6.52571C40.1175 5.43339 41.5191 3.70218 42.1786 1.62059C40.4679 2.65108 38.5718 3.37242 36.5727 3.78462C34.9445 2.01218 32.6568 0.981689 30.0599 0.981689C25.2168 0.981689 21.2596 4.93877 21.2596 9.82328C21.2596 10.524 21.3421 11.2041 21.4864 11.843C14.1493 11.4721 7.61598 7.94779 3.26732 2.60986C2.50477 3.90828 2.07196 5.43339 2.07196 7.04096C2.07196 10.1118 3.6177 12.8323 6.00843 14.378C4.54513 14.378 3.18489 13.9658 1.98952 13.3475V13.4094C1.98952 17.6962 5.03976 21.2822 9.07928 22.0861C7.78236 22.441 6.42081 22.4903 5.10159 22.2304C5.66136 23.9873 6.75766 25.5247 8.23637 26.6263C9.71508 27.7279 11.5018 28.3384 13.3455 28.372C10.2203 30.8461 6.34641 32.1834 2.3605 32.1642C1.65976 32.1642 0.959033 32.1231 0.258301 32.0406C4.17416 34.555 8.83195 36.0183 13.8195 36.0183C30.06 36.0183 38.984 22.5395 38.984 10.8538C38.984 10.4622 38.984 10.0912 38.9635 9.69962C40.6947 8.46302 42.1786 6.89669 43.3739 5.10364Z" fill="#D8E0E9"/>
</svg>
