<svg xmlns="http://www.w3.org/2000/svg" xmlns:xlink="http://www.w3.org/1999/xlink" version="1.1" x="0px" y="0px" viewBox="0 0 32 40" style="enable-background:new 0 0 32 32;" xml:space="preserve"><style type="text/css">
	.st0{display:none;}
</style><g><path d="M17.4,16l9.3-9.3c0.4-0.4,0.4-1,0-1.4s-1-0.4-1.4,0L16,14.6L6.7,5.3c-0.4-0.4-1-0.4-1.4,0s-0.4,1,0,1.4l9.3,9.3l-9.3,9.3   c-0.4,0.4-0.4,1,0,1.4C5.5,26.9,5.7,27,6,27s0.5-0.1,0.7-0.3l9.3-9.3l9.3,9.3c0.2,0.2,0.5,0.3,0.7,0.3s0.5-0.1,0.7-0.3   c0.4-0.4,0.4-1,0-1.4L17.4,16z"/></g><text x="0" y="47" fill="#000000" font-size="5px" font-weight="bold" font-family="'Helvetica Neue', Helvetica, Arial-Unicode, Arial, Sans-serif">Created by jafar</text><text x="0" y="52" fill="#000000" font-size="5px" font-weight="bold" font-family="'Helvetica Neue', Helvetica, Arial-Unicode, Arial, Sans-serif">from the Noun Project</text></svg>