<svg width="41" height="41" viewBox="0 0 41 41" fill="none" xmlns="http://www.w3.org/2000/svg">
<path d="M9.22188 10.6795C6.78884 13.3969 5.42665 16.9061 5.38912 20.5533C5.29665 28.8873 12.101 35.7402 20.4349 35.7558C28.7571 35.7715 35.4807 29.0299 35.4807 20.71C35.4807 12.5179 28.9334 5.85153 20.7876 5.66424C20.7417 5.66277 20.696 5.67054 20.6532 5.6871C20.6105 5.70366 20.5715 5.72866 20.5386 5.76062C20.5056 5.79258 20.4795 5.83083 20.4617 5.87311C20.4439 5.91539 20.4348 5.96082 20.4349 6.00669V12.5602" stroke="#274D83" stroke-width="2.50763" stroke-linecap="round" stroke-linejoin="round"/>
<path d="M18.6631 22.4833L12.4724 13.6282C12.3867 13.5055 12.347 13.3566 12.3601 13.2076C12.3733 13.0585 12.4385 12.9189 12.5443 12.8131C12.6501 12.7073 12.7897 12.6421 12.9388 12.6289C13.0878 12.6158 13.2367 12.6555 13.3594 12.7412L22.2145 18.9319C22.7577 19.3231 23.125 19.9123 23.237 20.5723C23.349 21.2322 23.1967 21.9096 22.8131 22.4582C22.4295 23.0067 21.8454 23.3821 21.1871 23.5032C20.5288 23.6244 19.8492 23.4815 19.2955 23.1055C19.0506 22.9358 18.8367 22.7254 18.6631 22.4833Z" fill="#274D83"/>
</svg>
