<svg width="65" height="65" viewBox="0 0 65 65" fill="none" xmlns="http://www.w3.org/2000/svg">
<path d="M48.9848 46.438L32.0142 63.4087L15.0435 46.438C11.6871 43.0815 9.40132 38.8051 8.4753 34.1496C7.54928 29.4941 8.02458 24.6685 9.84109 20.2831C11.6576 15.8976 14.7337 12.1494 18.6805 9.51224C22.6273 6.8751 27.2674 5.46753 32.0142 5.46753C36.7609 5.46753 41.4011 6.8751 45.3478 9.51224C49.2946 12.1494 52.3707 15.8976 54.1872 20.2831C56.0038 24.6685 56.4791 29.4941 55.553 34.1496C54.627 38.8051 52.3413 43.0815 48.9848 46.438ZM32.0142 34.8007C33.4287 34.8007 34.7852 34.2388 35.7854 33.2386C36.7856 32.2384 37.3475 30.8818 37.3475 29.4673C37.3475 28.0528 36.7856 26.6963 35.7854 25.6961C34.7852 24.6959 33.4287 24.134 32.0142 24.134C30.5997 24.134 29.2431 24.6959 28.2429 25.6961C27.2427 26.6963 26.6808 28.0528 26.6808 29.4673C26.6808 30.8818 27.2427 32.2384 28.2429 33.2386C29.2431 34.2388 30.5997 34.8007 32.0142 34.8007Z" fill="#353535"/>
</svg>
