<svg width="46" height="45" viewBox="0 0 46 45" fill="none" xmlns="http://www.w3.org/2000/svg">
<path d="M22.7583 3.75C27.8527 3.75 28.4883 3.76875 30.4871 3.8625C32.4839 3.95625 33.8433 4.26938 35.0395 4.73438C36.2771 5.21063 37.3196 5.85562 38.3621 6.89625C39.3155 7.83355 40.0532 8.96735 40.5239 10.2187C40.9871 11.4131 41.3021 12.7744 41.3958 14.7712C41.4839 16.77 41.5083 17.4056 41.5083 22.5C41.5083 27.5944 41.4896 28.23 41.3958 30.2288C41.3021 32.2256 40.9871 33.585 40.5239 34.7812C40.0546 36.0333 39.3167 37.1674 38.3621 38.1038C37.4245 39.0569 36.2908 39.7945 35.0395 40.2656C33.8452 40.7288 32.4839 41.0438 30.4871 41.1375C28.4883 41.2256 27.8527 41.25 22.7583 41.25C17.6639 41.25 17.0283 41.2313 15.0296 41.1375C13.0327 41.0438 11.6733 40.7288 10.4771 40.2656C9.22516 39.7959 8.09116 39.058 7.15455 38.1038C6.20094 37.1666 5.46317 36.0328 4.99268 34.7812C4.52768 33.5869 4.21455 32.2256 4.1208 30.2288C4.03268 28.23 4.0083 27.5944 4.0083 22.5C4.0083 17.4056 4.02705 16.77 4.1208 14.7712C4.21455 12.7725 4.52768 11.415 4.99268 10.2187C5.46187 8.96659 6.19981 7.83248 7.15455 6.89625C8.09143 5.94231 9.22535 5.20449 10.4771 4.73438C11.6733 4.26938 13.0308 3.95625 15.0296 3.8625C17.0283 3.77437 17.6639 3.75 22.7583 3.75ZM22.7583 13.125C20.2719 13.125 17.8873 14.1127 16.1292 15.8709C14.371 17.629 13.3833 20.0136 13.3833 22.5C13.3833 24.9864 14.371 27.371 16.1292 29.1291C17.8873 30.8873 20.2719 31.875 22.7583 31.875C25.2447 31.875 27.6293 30.8873 29.3874 29.1291C31.1456 27.371 32.1333 24.9864 32.1333 22.5C32.1333 20.0136 31.1456 17.629 29.3874 15.8709C27.6293 14.1127 25.2447 13.125 22.7583 13.125ZM34.9458 12.6562C34.9458 12.0346 34.6989 11.4385 34.2593 10.999C33.8198 10.5594 33.2237 10.3125 32.6021 10.3125C31.9804 10.3125 31.3843 10.5594 30.9448 10.999C30.5052 11.4385 30.2583 12.0346 30.2583 12.6562C30.2583 13.2779 30.5052 13.874 30.9448 14.3135C31.3843 14.7531 31.9804 15 32.6021 15C33.2237 15 33.8198 14.7531 34.2593 14.3135C34.6989 13.874 34.9458 13.2779 34.9458 12.6562ZM22.7583 16.875C24.2501 16.875 25.6809 17.4676 26.7358 18.5225C27.7907 19.5774 28.3833 21.0082 28.3833 22.5C28.3833 23.9918 27.7907 25.4226 26.7358 26.4775C25.6809 27.5324 24.2501 28.125 22.7583 28.125C21.2665 28.125 19.8357 27.5324 18.7808 26.4775C17.7259 25.4226 17.1333 23.9918 17.1333 22.5C17.1333 21.0082 17.7259 19.5774 18.7808 18.5225C19.8357 17.4676 21.2665 16.875 22.7583 16.875Z" fill="#D8E0E9"/>
</svg>
