<svg width="46" height="46" viewBox="0 0 46 46" fill="none" xmlns="http://www.w3.org/2000/svg">
<path d="M7.427 20.5723L10.7576 12.8011C11.2998 11.536 12.6813 10.6985 14.2249 10.6985H31.661C33.2047 10.6985 34.5861 11.536 35.1283 12.8011L38.459 20.5723M7.427 20.5723H38.459M7.427 20.5723V33.2672M38.459 20.5723V33.2672M38.459 33.2672H7.427M38.459 33.2672V36.0883H35.6379V33.2672M7.427 33.2672V36.0883H10.2481V33.2672" stroke="#274D83" stroke-width="2.82109" stroke-linecap="round" stroke-linejoin="round"/>
<path d="M13.0692 27.625C13.8483 27.625 14.4798 26.9935 14.4798 26.2145C14.4798 25.4355 13.8483 24.804 13.0692 24.804C12.2902 24.804 11.6587 25.4355 11.6587 26.2145C11.6587 26.9935 12.2902 27.625 13.0692 27.625Z" stroke="#274D83" stroke-width="2.82109" stroke-linecap="round" stroke-linejoin="round"/>
<path d="M32.8168 27.625C33.5958 27.625 34.2273 26.9935 34.2273 26.2145C34.2273 25.4355 33.5958 24.804 32.8168 24.804C32.0378 24.804 31.4062 25.4355 31.4062 26.2145C31.4062 26.9935 32.0378 27.625 32.8168 27.625Z" stroke="#274D83" stroke-width="2.82109" stroke-linecap="round" stroke-linejoin="round"/>
</svg>
