<svg width="36" height="36" viewBox="0 0 36 36" fill="none" xmlns="http://www.w3.org/2000/svg">
<path d="M33.3664 13.5713C33.2312 13.1547 32.9765 12.7871 32.634 12.5143C32.2915 12.2415 31.8762 12.0754 31.44 12.0368L23.1555 11.3226L19.9081 3.60032C19.7391 3.19512 19.4539 2.849 19.0885 2.60554C18.7231 2.36208 18.2939 2.23218 17.8548 2.23218C17.4157 2.23218 16.9865 2.36208 16.6211 2.60554C16.2557 2.849 15.9705 3.19512 15.8015 3.60032L12.5638 11.3226L4.2696 12.041C3.83165 12.0778 3.4143 12.2431 3.06991 12.5162C2.72551 12.7892 2.4694 13.1579 2.33368 13.5759C2.19797 13.9939 2.18869 14.4427 2.30702 14.866C2.42535 15.2892 2.66601 15.6682 2.99883 15.9552L9.29134 21.454L7.4054 29.6199C7.30568 30.0472 7.33413 30.4945 7.48721 30.9057C7.64029 31.317 7.9112 31.674 8.26606 31.9321C8.62093 32.1902 9.04401 32.338 9.48241 32.3569C9.92081 32.3759 10.3551 32.2652 10.7309 32.0387L17.845 27.7144L24.9745 32.0387C25.3503 32.2652 25.7846 32.3759 26.223 32.3569C26.6614 32.338 27.0845 32.1902 27.4394 31.9321C27.7942 31.674 28.0651 31.317 28.2182 30.9057C28.3713 30.4945 28.3997 30.0472 28.3 29.6199L26.4155 21.4456L32.7066 15.9552C33.0394 15.6672 33.2796 15.2872 33.397 14.863C33.5144 14.4388 33.5037 13.9894 33.3664 13.5713ZM31.2433 14.2687L24.9522 19.7592C24.646 20.0255 24.4182 20.3703 24.2934 20.7564C24.1685 21.1425 24.1513 21.5554 24.2436 21.9506L26.1337 30.1305L19.0098 25.8062C18.6622 25.5945 18.2631 25.4826 17.8562 25.4826C17.4493 25.4826 17.0502 25.5945 16.7026 25.8062L9.58846 30.1305L11.466 21.9562C11.5583 21.561 11.5411 21.1481 11.4162 20.762C11.2914 20.3759 11.0636 20.0311 10.7574 19.7647L4.4635 14.2771C4.46299 14.2729 4.46299 14.2687 4.4635 14.2645L12.7549 13.5476C13.1598 13.5119 13.5471 13.3663 13.8753 13.1267C14.2035 12.887 14.46 12.5623 14.6172 12.1875L17.8548 4.47494L21.091 12.1875C21.2482 12.5623 21.5047 12.887 21.8329 13.1267C22.1611 13.3663 22.5485 13.5119 22.9533 13.5476L31.2461 14.2645V14.2743L31.2433 14.2687Z" fill="#404040"/>
<path d="M31.2433 14.2687L24.9522 19.7592C24.646 20.0255 24.4182 20.3703 24.2934 20.7564C24.1685 21.1425 24.1513 21.5554 24.2436 21.9506L26.1337 30.1305L19.0098 25.8062C18.6622 25.5945 18.2631 25.4826 17.8562 25.4826C17.4493 25.4826 17.0502 25.5945 16.7026 25.8062L9.58846 30.1305L11.466 21.9562C11.5583 21.561 11.5411 21.1481 11.4162 20.762C11.2914 20.3759 11.0636 20.0311 10.7574 19.7647L4.4635 14.2771C4.46299 14.2729 4.46299 14.2687 4.4635 14.2645L12.7549 13.5476C13.1598 13.5119 13.5471 13.3663 13.8753 13.1267C14.2035 12.887 14.46 12.5623 14.6172 12.1875L17.8548 4.47494L21.091 12.1875C21.2482 12.5623 21.5047 12.887 21.8329 13.1267C22.1611 13.3663 22.5485 13.5119 22.9533 13.5476L31.2461 14.2645V14.2743L31.2433 14.2687Z" fill="#FFE500"/>
</svg>
