<svg width="64" height="65" viewBox="0 0 64 65" fill="none" xmlns="http://www.w3.org/2000/svg">
<path d="M53.3335 13.4004H10.6668V50.7337L35.4455 25.9497C35.9456 25.4498 36.6237 25.1689 37.3308 25.1689C38.0379 25.1689 38.7161 25.4498 39.2162 25.9497L53.3335 40.0937V13.4004ZM5.3335 10.715C5.33838 10.0147 5.61856 9.3444 6.11353 8.84893C6.6085 8.35346 7.27851 8.0726 7.97883 8.06702H56.0215C57.4828 8.06702 58.6668 9.25368 58.6668 10.715V53.419C58.6619 54.1193 58.3818 54.7896 57.8868 55.2851C57.3918 55.7806 56.7218 56.0614 56.0215 56.067H7.97883C7.277 56.0663 6.60415 55.787 6.10813 55.2905C5.61211 54.794 5.3335 54.1208 5.3335 53.419V10.715ZM21.3335 29.4004C19.919 29.4004 18.5625 28.8384 17.5623 27.8383C16.5621 26.8381 16.0002 25.4815 16.0002 24.067C16.0002 22.6525 16.5621 21.296 17.5623 20.2958C18.5625 19.2956 19.919 18.7337 21.3335 18.7337C22.748 18.7337 24.1045 19.2956 25.1047 20.2958C26.1049 21.296 26.6668 22.6525 26.6668 24.067C26.6668 25.4815 26.1049 26.8381 25.1047 27.8383C24.1045 28.8384 22.748 29.4004 21.3335 29.4004Z" fill="#353535"/>
</svg>
